<svg width="18" height="18" viewBox="0 0 18 18" fill="none" xmlns="http://www.w3.org/2000/svg"><path fillRule="evenodd" clipRule="evenodd" d="M7.94996 0.0230231C6.39115 0.251862 5.18522 0.702145 3.99475 1.49987C0.807804 3.63553 -0.679473 7.56577 0.296 11.2742C0.691783 12.7789 1.42433 14.087 2.50201 15.2137C2.88752 15.6167 3.55344 16.2089 3.62735 16.2143C3.64234 16.2154 3.85417 16.3492 4.09812 16.5116C6.53178 18.1321 9.69925 18.4306 12.4554 17.2995C12.8982 17.1177 13.6529 16.7052 14.0279 16.4398C14.1866 16.3276 14.3306 16.2357 14.3479 16.2357C14.418 16.2357 15.1262 15.6057 15.517 15.1957C17.8136 12.7864 18.5896 9.3155 17.5397 6.14883C17.0888 4.78862 16.3779 3.63923 15.3528 2.61285C14.0892 1.34757 12.5829 0.532469 10.8055 0.15207C10.3054 0.0450223 10.1097 0.0288739 9.16387 0.0165169C8.57325 0.00879378 8.02699 0.0117426 7.94996 0.0230231Z" fill="#FFE26F"></path><path fillRule="evenodd" clipRule="evenodd" d="M8.79023 0.0244882C8.86726 0.0338028 9.14039 0.0748525 9.39718 0.115668C11.3046 0.419117 13.0568 1.33176 14.4101 2.72679C14.625 2.94833 14.8149 3.12957 14.8319 3.12957C14.849 3.12957 14.9734 3.01742 15.1085 2.88036L15.354 2.63117L15.1302 2.42264C13.6921 1.08223 11.841 0.240877 9.89414 0.0426961C9.46474 -0.000974736 8.43955 -0.0179188 8.79023 0.0244882ZM8.18327 2.16717C6.12331 2.44876 4.39161 3.52485 3.28275 5.21247C1.93503 7.2636 1.78455 9.87327 2.88706 12.0765C3.84372 13.9883 5.66748 15.353 7.79869 15.7518C8.41686 15.8675 9.76846 15.8681 10.3076 15.7528C12.1788 15.3528 13.7008 14.3233 14.7282 12.7626C15.4412 11.6793 15.7931 10.5788 15.8476 9.26127C15.9263 7.35702 15.2618 5.60766 13.9293 4.21123C12.4501 2.66107 10.2627 1.88296 8.18327 2.16717ZM9.24544 3.16575C9.35755 3.26442 9.35115 3.52677 9.23377 3.64444C9.12205 3.75645 8.92026 3.76558 8.7773 3.66518C8.7011 3.61168 8.67351 3.54516 8.67351 3.41499C8.67351 3.08641 8.9958 2.94599 9.24544 3.16575ZM7.34343 3.50463C7.54643 3.72949 7.38946 4.0657 7.0815 4.0657C6.87822 4.0657 6.75926 3.94087 6.75926 3.72762C6.75926 3.44668 7.15481 3.29568 7.34343 3.50463ZM11.148 3.50402C11.2597 3.61603 11.2689 3.81833 11.1687 3.96165C11.1149 4.0387 11.0491 4.0657 10.9153 4.0657C10.5891 4.0657 10.448 3.73777 10.6687 3.49232C10.7695 3.38012 11.0308 3.38649 11.148 3.50402ZM5.99757 4.21427C6.1284 4.33751 6.13909 4.54847 6.02022 4.66249C5.9732 4.70757 5.79989 4.8595 5.63503 5.00016C5.47013 5.14081 5.1814 5.42835 4.99339 5.63916C4.80532 5.84998 4.61395 6.0323 4.5681 6.04432C4.52225 6.05631 4.41944 6.03866 4.3397 6.00501C4.18422 5.93948 4.11465 5.78047 4.1619 5.59863C4.20696 5.42535 4.82181 4.74623 5.23024 4.41858C5.65287 4.07961 5.81007 4.03771 5.99757 4.21427ZM12.8022 4.44358C13.1879 4.75461 13.7953 5.43148 13.8388 5.59863C13.886 5.78047 13.8164 5.93948 13.661 6.00501C13.5812 6.03866 13.4778 6.05617 13.4313 6.044C13.3848 6.03178 13.1988 5.85466 13.0181 5.65035C12.8373 5.44604 12.5337 5.14217 12.3434 4.97507C11.9726 4.64957 11.9228 4.57595 11.9696 4.42186C12.0212 4.25143 12.1359 4.15932 12.2964 4.15932C12.4142 4.15932 12.5314 4.22513 12.8022 4.44358ZM9.25973 5.20077C9.30208 5.25867 9.5189 5.76947 9.74156 6.33584L10.1464 7.36559L11.2682 7.4409C11.8853 7.48233 12.4361 7.54084 12.4922 7.57098C12.6028 7.63028 12.6589 7.78306 12.6343 7.9576C12.6205 8.05538 12.0555 8.57283 11.055 9.40408L10.8607 9.56551L11.1444 10.6684C11.3005 11.275 11.4282 11.8078 11.4282 11.8524C11.4282 11.9755 11.2152 12.1633 11.0755 12.1633C10.9976 12.1633 10.597 11.9383 9.98976 11.5535C9.43687 11.2032 8.99865 10.9549 8.9598 10.9699C8.92259 10.9842 8.47624 11.26 7.96789 11.5827C6.94527 12.232 6.83891 12.2663 6.64776 12.0086L6.55037 11.8772L6.84194 10.7214L7.13352 9.56551L6.95806 9.4169C5.49128 8.17455 5.38226 8.07017 5.3676 7.89409C5.34841 7.66366 5.46803 7.54776 5.76203 7.512C5.88683 7.49679 6.39859 7.46047 6.89932 7.43131C7.40006 7.4021 7.82246 7.36484 7.83796 7.34851C7.85346 7.33217 8.04965 6.85539 8.27394 6.28903C8.49823 5.72267 8.71468 5.22244 8.75488 5.17737C8.86493 5.05417 9.16262 5.06793 9.25973 5.20077ZM4.00461 6.82731C4.14365 6.9667 4.12913 7.21721 3.97496 7.33877C3.81683 7.46351 3.71135 7.46136 3.56606 7.33048C3.3194 7.10829 3.44812 6.7337 3.77116 6.7337C3.84899 6.7337 3.95274 6.77531 4.00461 6.82731ZM14.4216 6.78336C14.6455 6.90351 14.6244 7.27474 14.3875 7.38291C14.2255 7.45696 14.1664 7.44975 14.0257 7.33877C13.6956 7.07843 14.0485 6.58321 14.4216 6.78336ZM3.67779 8.74639C3.86454 8.93362 3.75169 9.26993 3.48052 9.33424C3.37856 9.35844 3.32528 9.33635 3.21206 9.22284C3.04608 9.0564 3.03497 8.94514 3.16762 8.77612C3.28887 8.62156 3.53875 8.607 3.67779 8.74639ZM14.833 8.77612C14.9437 8.91719 14.9509 8.9764 14.8771 9.13887C14.7692 9.37637 14.3989 9.39748 14.279 9.17299C14.0824 8.80472 14.5774 8.4502 14.833 8.77612ZM4.01259 10.6493C4.12054 10.7472 4.12516 11.0259 4.02072 11.1416C3.92304 11.2498 3.6451 11.2544 3.52973 11.1497C3.42179 11.0518 3.41717 10.7731 3.52161 10.6575C3.61928 10.5493 3.89722 10.5446 4.01259 10.6493ZM14.5062 10.6952C14.5594 10.763 14.603 10.855 14.603 10.8995C14.603 10.9441 14.5594 11.036 14.5062 11.1038C14.4315 11.1991 14.3684 11.2272 14.2287 11.2272C14.0214 11.2272 13.9027 11.104 13.9027 10.8891C13.9027 10.5855 14.316 10.4527 14.5062 10.6952ZM4.62795 11.9565C4.66684 11.9714 4.82703 12.1393 4.984 12.3295C5.14092 12.5197 5.45748 12.8354 5.68747 13.031C6.14245 13.418 6.19689 13.5377 6.01826 13.7589C5.86204 13.9523 5.65138 13.9078 5.28183 13.6034C4.66544 13.0955 4.14468 12.484 4.14468 12.2681C4.14468 12.0346 4.40118 11.8692 4.62795 11.9565ZM13.7479 12.031C13.9836 12.253 13.8449 12.5172 13.1135 13.2399C12.5843 13.7627 12.3786 13.8923 12.2041 13.8126C12.0376 13.7366 11.9311 13.556 11.9674 13.4113C11.9849 13.3411 12.1399 13.1736 12.3442 13.0042C12.5351 12.8459 12.84 12.5393 13.0219 12.3228C13.3045 11.9863 13.3733 11.9293 13.4961 11.9293C13.5794 11.9293 13.6853 11.972 13.7479 12.031ZM7.27816 13.9448C7.50208 14.065 7.48102 14.4362 7.24412 14.5444C7.08207 14.6184 7.023 14.6112 6.88228 14.5002C6.79213 14.4292 6.75926 14.3604 6.75926 14.2428C6.75926 13.962 7.02538 13.8092 7.27816 13.9448ZM11.148 13.9888C11.2871 14.1282 11.2725 14.3787 11.1184 14.5002C10.9777 14.6112 10.9186 14.6184 10.7565 14.5444C10.5243 14.4383 10.4981 14.0728 10.7136 13.9472C10.8485 13.8685 11.047 13.8875 11.148 13.9888ZM9.22495 14.3182C9.44238 14.5213 9.29293 14.9249 9.00033 14.9249C8.82146 14.9249 8.67351 14.766 8.67351 14.5739C8.67351 14.3817 8.82146 14.2228 9.00033 14.2228C9.0677 14.2228 9.16878 14.2658 9.22495 14.3182ZM14.2295 15.4072C13.4305 16.1893 12.7546 16.6652 11.794 17.1223C10.9781 17.5106 9.91856 17.8202 9.12872 17.9012C8.69676 17.9454 8.72692 18.0243 9.16374 17.9927C9.35633 17.9788 9.67676 17.9555 9.87575 17.9411C11.644 17.8127 13.7226 16.884 15.0232 15.6413L15.3267 15.3513L15.0699 15.0936L14.8131 14.836L14.2295 15.4072Z" fill="#FFA300"></path></svg>