<svg width="20" height="27" viewBox="0 0 20 27" fill="none" xmlns="http://www.w3.org/2000/svg" class="absolute" style="color: var(--primary); bottom: -2px; right: -2px; font-size: 14px; width: 14px; height: 14px; filter: drop-shadow(0 0 1px var(--gray-900));"><path d="M10 26.088C11.984 26.088 13.552 25.896 14.704 25.576C15.856 25.256 16.432 24.808 16.432 24.232L15.984 17.736C18.352 15.24 19.504 13 19.504 11.048C19.504 8.36 18.032 6.664 15.6 6.664C14.192 6.664 12.976 7.176 11.952 8.2L12.08 6.088C12.144 5.288 11.568 4.808 10.544 4.648V2.856H11.856V2.088H10.544V0.903999H9.456V2.088H8.144V2.856H9.456V4.648C8.432 4.808 7.856 5.288 7.92 6.088L8.048 8.2C7.024 7.176 5.808 6.664 4.4 6.664C1.968 6.664 0.496 8.36 0.496 11.048C0.496 13 1.648 15.24 4.016 17.736L3.568 24.232C3.568 24.808 4.144 25.256 5.296 25.576C6.448 25.896 8.016 26.088 10 26.088ZM10 11.496C9.68 10.664 9.392 10.024 9.104 9.544V6.504C9.104 5.8 9.392 5.448 10 5.448C10.608 5.448 10.896 5.8 10.896 6.504V9.544C10.608 10.024 10.32 10.664 10 11.496ZM10 10.664C10.096 10.28 10.256 9.736 10.416 9.288V7.016C10.416 6.696 10.384 6.28 10 6.28C9.616 6.28 9.584 6.696 9.584 7.016V9.288C9.744 9.736 9.904 10.28 10 10.664ZM5.104 17.096C3.28 15.208 1.936 12.84 1.936 11.208C1.936 9.192 2.864 8.008 4.464 8.008C7.184 8.008 9.328 11.88 9.328 15.592V16.616C8.144 16.616 6.704 16.776 5.104 17.096ZM14.896 17.096C13.296 16.776 11.856 16.616 10.672 16.616V15.592C10.672 11.88 12.816 8.008 15.536 8.008C17.136 8.008 18.064 9.192 18.064 11.208C18.064 12.84 16.72 15.208 14.896 17.096ZM5.232 16.072C6.672 15.848 7.76 15.72 8.528 15.72V15.56C8.528 12.392 6.864 9.032 4.784 9.032C3.536 9.032 2.928 9.992 2.928 11.496C2.928 12.744 3.696 14.28 5.232 16.072ZM14.768 16.072C16.304 14.28 17.072 12.744 17.072 11.496C17.072 9.992 16.464 9.032 15.216 9.032C13.136 9.032 11.472 12.392 11.472 15.56V15.72C12.24 15.72 13.328 15.848 14.768 16.072ZM5.296 20.232L5.36 19.336C6.736 18.984 8.272 18.792 10 18.792C11.728 18.792 13.264 18.984 14.64 19.336L14.704 20.232C14.064 19.976 11.888 19.688 10 19.688C8.112 19.688 5.936 19.976 5.296 20.232ZM5.072 22.696L5.136 21.864C6.32 21.544 8.304 21.224 10 21.224C11.696 21.224 13.68 21.544 14.864 21.864L14.928 22.696C13.808 22.312 12.144 22.12 10 22.12C7.856 22.12 6.192 22.312 5.072 22.696Z" fill="#ecc879"></path></svg>