<svg width="32" height="32" viewBox="0 0 32 32" fill="none" xmlns="http://www.w3.org/2000/svg" class="transform cursor-pointer transition-all" style="width: 40px; height: 40px;"><rect x="14" y="11" width="5" height="10" rx="1" fill="url(#paint0_linear_299_6779)" stroke="url(#paint1_linear_299_6779)"></rect><path d="M16.5 11V9" stroke="url(#paint2_linear_299_6779)" stroke-width="1.5"></path><path fillRule="evenodd" clipRule="evenodd" d="M9 14V15.25H9.75C10.7165 15.25 11.5 16.0335 11.5 17V25C11.5 25.9665 10.7165 26.75 9.75 26.75H9V28H7.5V26.75H6.75C5.7835 26.75 5 25.9665 5 25V17C5 16.0335 5.7835 15.25 6.75 15.25H7.5V14H9ZM6.75 16.75C6.61193 16.75 6.5 16.8619 6.5 17V25C6.5 25.1381 6.61193 25.25 6.75 25.25H9.75C9.88807 25.25 10 25.1381 10 25V17C10 16.8619 9.88807 16.75 9.75 16.75H6.75Z" fill="url(#paint0_linear_299_6779)"></path><path d="M16.5 23V21" stroke="url(#paint3_linear_299_6779)" stroke-width="1.5"></path><path fillRule="evenodd" clipRule="evenodd" d="M25.5 4V5.25H26.25C27.2165 5.25 28 6.0335 28 7V15C28 15.9665 27.2165 16.75 26.25 16.75H25.5V18H24V16.75H23.25C22.2835 16.75 21.5 15.9665 21.5 15V7C21.5 6.0335 22.2835 5.25 23.25 5.25H24V4H25.5ZM23.25 6.75C23.1119 6.75 23 6.86193 23 7V15C23 15.1381 23.1119 15.25 23.25 15.25H26.25C26.3881 15.25 26.5 15.1381 26.5 15V7C26.5 6.86193 26.3881 6.75 26.25 6.75H23.25Z" fill="url(#paint0_linear_299_6779)"></path><defs><linearGradient id="paint0_linear_299_6779" x1="14.5708" y1="-24.5263" x2="26.6489" y2="-24.0634" gradientUnits="userSpaceOnUse"><stop stop-color="#ECC879"></stop><stop offset="1" stop-color="#D46B32"></stop></linearGradient><linearGradient id="paint1_linear_299_6779" x1="14.5708" y1="-24.5263" x2="26.6489" y2="-24.0634" gradientUnits="userSpaceOnUse"><stop stop-color="#ECC879"></stop><stop offset="1" stop-color="#D46B32"></stop></linearGradient><linearGradient id="paint2_linear_299_6779" x1="16.6142" y1="1.89474" x2="19.0298" y2="1.98732" gradientUnits="userSpaceOnUse"><stop stop-color="#ECC879"></stop><stop offset="1" stop-color="#D46B32"></stop></linearGradient><linearGradient id="paint3_linear_299_6779" x1="16.6142" y1="13.8947" x2="19.0298" y2="13.9873" gradientUnits="userSpaceOnUse"><stop stop-color="#ECC879"></stop><stop offset="1" stop-color="#D46B32"></stop></linearGradient></defs></svg>