<svg width="33" height="32" viewBox="0 0 33 32" fill="none" xmlns="http://www.w3.org/2000/svg" class="transform cursor-pointer transition-all" style="width: 40px; height: 40px;"><path d="M25.4423 17L28 8H9.3999L11.8 17H25.4423Z" stroke="url(#paint0_linear_349_6731)" stroke-width="1.5" stroke-linecap="round" stroke-linejoin="round"></path><path d="M6 5H8.56784L12.5329 20H24" stroke="url(#paint0_linear_349_6731)" stroke-width="1.5" stroke-linecap="round" stroke-linejoin="round"></path><path d="M13.134 23.5C13.6699 23.1906 14.3301 23.1906 14.866 23.5C15.4019 23.8094 15.7321 24.3812 15.7321 25C15.7321 25.6188 15.4019 26.1906 14.866 26.5C14.3301 26.8094 13.6699 26.8094 13.134 26.5C12.5981 26.1906 12.2679 25.6188 12.2679 25C12.2679 24.3812 12.5981 23.8094 13.134 23.5Z" fill="url(#paint0_linear_349_6731)"></path><path d="M22.134 23.5C22.6699 23.1906 23.3301 23.1906 23.866 23.5C24.4019 23.8094 24.7321 24.3812 24.7321 25C24.7321 25.6188 24.4019 26.1906 23.866 26.5C23.3301 26.8094 22.6699 26.8094 22.134 26.5C21.5981 26.1906 21.2679 25.6188 21.2679 25C21.2679 24.3812 21.5981 23.8094 22.134 23.5Z" fill="url(#paint1_linear_349_6731)"></path><defs><linearGradient id="paint0_linear_349_6731" x1="12.4567" y1="8.78948" x2="22.0768" y2="9.52686" gradientUnits="userSpaceOnUse"><stop stop-color="#ECC879"></stop><stop offset="1" stop-color="#D46B32"></stop></linearGradient><linearGradient id="paint1_linear_349_6731" x1="21.4567" y1="8.78948" x2="31.0768" y2="9.52686" gradientUnits="userSpaceOnUse"><stop stop-color="#ECC879"></stop><stop offset="1" stop-color="#D46B32"></stop></linearGradient></defs></svg>